<svg width="368" height="61" viewBox="0 0 368 61" fill="none" xmlns="http://www.w3.org/2000/svg">
<path d="M356.5 29.1C356.5 33.037 358.962 35.5 361.1 35.5C365.037 35.5 367.5 33.037 367.5 29.1C367.5 26.962 365.037 24.5 361.1 24.5C358.962 24.5 356.5 26.962 356.5 29.1ZM356.5 29.1V29.5H213.475C212.946 13.395 199.733 0.5 183.5 0.5C167.267 0.5 154.054 13.395 153.525 29.5H11.5V29.1M356.5 29.1V30.5H213.5C213.5 47.068 200.069 60.5 183.5 60.5C166.931 60.5 153.5 47.068 153.5 30.5H11.5V29.1M11.5 29.1C11.5 26.962 9.038 24.5 5.1 24.5C2.962 24.5 0.5 26.962 0.5 29.1C0.5 33.037 2.962 35.5 5.1 35.5C9.038 35.5 11.5 33.037 11.5 29.1Z" stroke="#C2BEBA"/>
</svg>
